<?xml version="1.0" standalone="no"?>
<!DOCTYPE svg PUBLIC "-//W3C//DTD SVG 20010904//EN"
 "http://www.w3.org/TR/2001/REC-SVG-20010904/DTD/svg10.dtd">
<svg version="1.0" xmlns="http://www.w3.org/2000/svg"
 width="160.000000pt" height="160.000000pt" viewBox="0 0 160.000000 160.000000"
 preserveAspectRatio="xMidYMid meet">
<metadata>
Created by potrace 1.14, written by Peter Selinger 2001-2017
</metadata>
<g transform="translate(0.000000,160.000000) scale(0.100000,-0.100000)"
fill="#000000" stroke="none">
<path d="M717 1584 c-1 -2 -16 -5 -32 -8 -63 -12 -80 -16 -129 -32 -186 -61
-321 -178 -384 -333 -41 -101 -26 -260 42 -448 14 -40 28 -94 30 -121 5 -59
27 -106 60 -127 13 -9 54 -24 91 -35 37 -10 73 -24 80 -30 13 -11 23 -53 31
-135 3 -29 12 -56 22 -65 10 -8 16 -23 14 -33 -5 -25 26 -117 46 -141 39 -42
93 -60 197 -62 105 -3 156 8 204 44 34 25 62 85 64 136 1 25 9 47 20 56 11 10
19 33 22 65 2 28 7 64 11 80 3 17 7 35 7 42 0 13 37 31 82 39 52 9 119 48 137
80 10 17 21 51 23 75 10 77 17 114 23 119 12 9 52 142 66 216 12 64 14 147 4
184 -51 192 -197 329 -423 399 -38 12 -86 24 -105 28 -37 6 -198 11 -203 7z"/>
</g>
</svg>
